Coordinates
version=1
nRows=21
nColumns=33
inDegrees=yes

Units are S.I. units (second, meters, Newtons, ...)
Angles are in degrees.

endheader
time	ground_thorax_rot_x	ground_thorax_rot_y	ground_thorax_rot_z	ground_thorax_tx	ground_thorax_ty	ground_thorax_tz	clav_prot_r	clav_elev_r	scapula_abduction_r	scapula_elevation_r	scapula_upward_rot_r	scapula_winging_r	shoulder_elv_r	plane_of_elev_r	axial_rot_r	elbow_flexion_r	pro_sup_r	wrist_flex_r	wrist_dev_r	clav_prot_l	clav_elev_l	scapula_abduction_l	scapula_elevation_l	scapula_upward_rot_l	scapula_winging_l	shoulder_elv_l	plane_of_elev_l	axial_rot_l	elbow_flexion_l	pro_sup_l	wrist_flex_l	wrist_dev_l	
2.6500	25.286451	39.471665	1.609644	0.007686	1.004025	-0.038183	-19.692063	33.287096	-21.180024	24.097302	45.000000	-10.478246	-5.684798	-89.999998	14.937281	77.347285	3.829027	38.507291	-16.050402	21.484834	-15.077799	-45.000000	3.961654	-4.950491	17.501157	37.898546	-38.736169	-35.124901	75.238799	10.035287	15.129916	-15.772434	
2.6600	25.278068	39.618918	1.535842	0.007590	1.003994	-0.038263	-19.692495	33.136802	-20.946923	23.963837	45.000000	-10.535158	-5.550280	-89.999996	14.803626	77.604302	2.877134	38.083052	-15.433493	21.693692	-15.386955	-45.000000	3.859302	-6.028496	17.403032	38.542115	-37.230357	-34.693481	75.173612	9.580945	15.984560	-15.124663	
2.6700	25.271049	39.765963	1.457076	0.007485	1.003944	-0.038362	-19.689255	32.981998	-20.701099	23.827018	45.000000	-10.592370	-5.416773	-89.999992	14.670958	77.853960	1.907180	37.618601	-14.818231	21.901088	-15.712772	-45.000000	3.737735	-7.190956	17.294405	39.207348	-35.639211	-34.154310	75.064887	9.181868	16.914163	-14.498140	
2.6800	25.257767	39.920118	1.396500	0.007365	1.003885	-0.038466	-19.679209	32.832511	-20.451313	23.696012	45.000000	-10.644889	-5.289634	-89.999986	14.544640	78.091650	0.913689	37.121663	-14.197623	22.109156	-16.064729	-45.000000	3.590640	-8.478497	17.170819	39.943607	-33.951123	-33.549240	74.914745	8.817699	17.898140	-13.876092	
2.6900	25.238638	40.091717	1.341439	0.007221	1.003799	-0.038580	-19.670934	32.682574	-20.207974	23.564667	45.000000	-10.697761	-5.170601	-89.999976	14.426488	78.317805	-0.162387	36.599089	-13.558829	22.325837	-16.448841	-45.000000	3.376454	-10.023822	17.032312	40.859783	-32.046114	-32.880239	74.742618	8.449947	18.929906	-13.237484	
2.7000	25.207586	40.300443	1.293515	0.007028	1.003705	-0.038691	-19.674714	32.526285	-19.985483	23.426568	45.000000	-10.756172	-5.067374	-89.999956	14.324332	78.515937	-1.383513	36.089786	-12.891214	22.564504	-16.889698	-45.000000	3.050405	-12.012664	16.870208	42.120131	-29.775057	-32.180406	74.552622	8.008000	19.953579	-12.551464	
2.7100	25.164363	40.545185	1.226558	0.006779	1.003585	-0.038801	-19.699287	32.346726	-19.777786	23.265661	45.000000	-10.829273	-4.978628	-89.999921	14.237000	78.685070	-2.730242	35.626463	-12.210296	22.816033	-17.406423	-45.000000	2.572051	-14.600773	16.669876	43.891857	-27.021371	-31.417696	74.359382	7.470060	20.956907	-11.831198	
2.7200	25.091048	40.813180	1.148369	0.006497	1.003479	-0.038918	-19.743600	32.130125	-19.563603	23.070063	45.000000	-10.921307	-4.904013	-89.999859	14.164190	78.799097	-4.039594	35.214532	-11.588092	23.041529	-17.992925	-45.000000	1.975356	-17.665295	16.419019	46.136306	-23.924799	-30.569985	74.134425	6.880981	21.873846	-11.124198	
2.7300	24.980572	41.137676	1.018476	0.006118	1.003321	-0.039045	-19.834554	31.854550	-19.369991	22.817378	45.000000	-11.048716	-4.833279	-89.999748	14.096082	78.874465	-5.277981	34.803154	-11.002853	23.202212	-18.748957	-45.000000	1.070561	-21.956498	16.043843	49.508529	-19.909872	-29.315045	73.878979	6.205475	22.932788	-10.407516	
2.7400	24.840716	41.495537	0.862882	0.005677	1.003135	-0.039182	-19.950760	31.540297	-19.180873	22.528152	45.000000	-11.197038	-4.763450	-89.999549	14.029902	78.909976	-6.381851	34.390552	-10.474655	23.298051	-19.638161	-45.000000	-0.033124	-27.084812	15.566654	53.686249	-15.309761	-27.749183	73.579060	5.498749	24.081246	-9.713837	
2.7500	24.689646	41.861348	0.705801	0.005211	1.002918	-0.039343	-20.065425	31.217704	-18.982064	22.232293	45.000000	-11.346757	-4.689547	-89.999191	13.961137	78.918968	-7.313737	33.958604	-10.001506	23.331110	-20.625046	-45.000000	-1.229974	-32.675129	15.010627	58.348999	-10.442216	-25.967353	73.232416	4.824347	25.322526	-9.073921	
2.7600	24.550833	42.167322	0.595645	0.004828	1.002758	-0.039548	-20.129932	30.922603	-18.719498	21.967008	45.000000	-11.469669	-4.608371	-89.998551	13.887241	78.901370	-8.039853	33.479341	-9.604000	23.332219	-21.554445	-45.000000	-2.196911	-37.475818	14.479646	62.411970	-6.285717	-24.346839	72.817637	4.289768	26.449041	-8.519555	
2.7700	24.443323	42.416371	0.520937	0.004526	1.002625	-0.039794	-20.144739	30.666272	-18.410079	21.742074	45.000000	-11.562231	-4.509898	-89.997405	13.800110	78.895824	-8.707341	32.882881	-9.205290	23.323340	-22.418377	-45.000000	-2.935934	-41.481937	13.986591	65.819266	-2.806188	-22.884068	72.339373	3.853039	27.542401	-7.997718	
2.7800	24.381914	42.568251	0.498931	0.004378	1.002564	-0.040083	-20.086853	30.463002	-18.023186	21.572529	45.000000	-11.612447	-4.396259	-89.995351	13.705085	78.902229	-9.368082	32.204762	-8.802951	23.343286	-23.104398	-45.000000	-3.251739	-43.900619	13.611437	67.869499	-0.589114	-21.871598	71.797017	3.547438	28.425091	-7.521023	
2.7900	24.358492	42.641082	0.514960	0.004363	1.002562	-0.040418	-19.971777	30.298671	-17.571749	21.444008	45.000000	-11.630848	-4.267390	-89.991676	13.608325	78.907497	-10.050109	31.468738	-8.384587	23.386256	-23.637238	-45.000000	-3.218006	-44.994812	13.334613	68.784272	0.588502	-21.231283	71.188624	3.339422	29.142579	-7.085174	
2.8000	24.358396	42.646336	0.549227	0.004458	1.002608	-0.040794	-19.817184	30.149016	-17.060287	21.333132	45.000000	-11.631752	-4.119881	-89.985081	13.517655	78.903474	-10.816029	30.698585	-7.923343	23.446883	-24.025300	-45.000000	-2.909329	-44.993626	13.146475	68.749923	0.940202	-20.873367	70.499866	3.181919	29.755576	-6.681601	
2.8100	24.359430	42.654574	0.562979	0.004568	1.002638	-0.041191	-19.671350	29.982236	-16.548288	21.206270	45.000000	-11.641791	-3.952185	-89.973298	13.451373	78.880004	-11.741523	29.932720	-7.395758	23.507117	-24.402751	-45.000000	-2.607942	-44.990294	12.959359	68.700592	1.333492	-20.488615	69.744054	2.973212	30.427691	-6.272136	
2.8200	24.349279	42.672957	0.571716	0.004693	1.002646	-0.041610	-19.536820	29.798118	-16.042183	21.063160	45.000000	-11.661220	-3.761414	-89.952107	13.442850	78.820797	-12.902010	29.237202	-6.803541	23.565131	-24.756723	-45.000000	-2.323375	-44.982766	12.780044	68.638388	1.773990	-20.111739	68.911681	2.703309	31.132349	-5.872092	
2.8300	24.325722	42.704302	0.587465	0.004838	1.002672	-0.042059	-19.413617	29.595135	-15.541418	20.902777	45.000000	-11.689965	-3.524251	-89.914384	13.529883	78.699588	-14.205670	28.636010	-6.205149	23.623248	-25.100099	-45.000000	-2.044512	-44.968707	12.602295	68.567455	2.229365	-19.774011	68.022386	2.412430	31.796203	-5.493728	
2.8400	24.294649	42.736385	0.595478	0.005006	1.002726	-0.042538	-19.308311	29.358332	-15.043783	20.712034	45.000000	-11.733703	-3.172466	-89.846151	13.764421	78.533056	-15.672506	28.102794	-5.597200	23.682133	-25.434877	-45.000000	-1.768644	-44.945122	12.425042	68.479072	2.694115	-19.445242	67.078482	2.094220	32.426349	-5.134517	
2.8500	24.261223	42.768345	0.592595	0.005214	1.002827	-0.043034	-19.230223	29.081403	-14.563644	20.485200	45.000000	-11.795665	-2.610811	-89.725771	14.236295	78.338260	-17.187191	27.605404	-5.020302	23.745395	-25.775672	-45.000000	-1.480891	-44.903250	12.240461	68.378946	3.133201	-19.133693	66.102277	1.782791	32.995755	-4.796622	
